<?xml version="1.0" encoding="UTF-8"?>
<svg id="Layer_1" xmlns="http://www.w3.org/2000/svg" version="1.1" viewBox="0 0 260.33 44.83">
  <!-- Generator: Adobe Illustrator 30.1.0, SVG Export Plug-In . SVG Version: 2.1.1 Build 136)  -->
  <defs>
    <style>
      .st0 {
        fill: #fff;
      }
    </style>
  </defs>
  <path class="st0" d="M23.84,9.2v28.82l-16.42-5.7L23.84,9.2M24.84,6.06L5.83,32.83l19.01,6.59V6.06h0Z"/>
  <polygon class="st0" points="24.83 6.06 24.83 39.42 43.84 32.83 24.83 6.06"/>
  <g>
    <path class="st0" d="M54.41,32.67V13.77h3.51v15.66h5.4v3.24h-8.91Z"/>
    <path class="st0" d="M69.8,28.89c0,.18.05.32.16.41s.26.13.46.13h1.03c.14,0,.31-.04.51-.12.2-.08.35-.18.46-.28l.13-.14c.18-.18.31-.33.38-.46.07-.12.11-.25.11-.38v-.51h.4v3.92c-.56.5-.98.83-1.26.99-.28.15-.63.23-1.04.23h-2.7c-.63,0-1.15-.2-1.55-.61-.41-.41-.61-.92-.61-1.55V13.77h3.51v15.12ZM76.55,13.77v18.9h-3.51V13.77h3.51Z"/>
    <path class="st0" d="M79.79,32.67V13.77h3.51v18.9h-3.51ZM86.4,17.55c0-.18-.05-.31-.16-.41-.11-.09-.26-.13-.46-.13h-.89c-.14,0-.32.04-.51.12-.2.08-.35.17-.46.28l-.13.13c-.18.18-.31.33-.38.46s-.11.25-.11.38v.51h-.4v-3.92c.56-.5.98-.83,1.26-.99.28-.15.63-.23,1.04-.23h2.56c.63,0,1.15.2,1.55.61.4.41.61.92.61,1.55v16.74h-3.51v-15.12ZM93.02,17.55c0-.18-.05-.31-.16-.41-.11-.09-.26-.13-.46-.13h-.89c-.14,0-.31.04-.51.12-.2.08-.35.17-.46.28l-.14.13c-.18.18-.31.33-.38.46-.07.13-.11.25-.11.38v.51h-.41v-3.92c.56-.5.98-.83,1.26-.99.28-.15.62-.23,1.04-.23h2.57c.63,0,1.15.2,1.55.61.41.41.61.92.61,1.55v16.74h-3.51v-15.12Z"/>
    <path class="st0" d="M99.77,32.67V13.77h8.91v3.24h-5.4v4.32h3.78v3.24h-3.78v4.86h5.4v3.24h-8.91Z"/>
    <path class="st0" d="M111.65,32.67V13.77h3.51v18.9h-3.51ZM118.4,17.55c0-.18-.05-.31-.16-.41-.11-.09-.26-.13-.46-.13h-1.03c-.14,0-.32.04-.51.12-.2.08-.35.17-.46.28l-.13.13c-.18.18-.31.33-.38.46s-.11.25-.11.38v.51h-.4v-3.92c.56-.5.98-.83,1.26-.99.28-.15.63-.23,1.04-.23h2.7c.63,0,1.15.2,1.55.61.41.41.61.92.61,1.55v16.74h-3.51v-15.12Z"/>
    <path class="st0" d="M125.42,32.67V13.77h3.51v18.9h-3.51Z"/>
    <path class="st0" d="M134.35,32.67c-.54,0-1-.2-1.36-.61-.37-.41-.55-.89-.55-1.44v-3.35h3.51v1.76c0,.13.04.22.11.3s.17.11.3.11h2.43c.13,0,.23-.04.3-.11.07-.07.11-.17.11-.3v-3.78c0-.13-.04-.22-.11-.3-.07-.07-.17-.11-.3-.11h-4.32c-.56,0-1.04-.2-1.43-.61s-.59-.9-.59-1.47v-6.86c0-.56.21-1.05.62-1.49.41-.43.94-.65,1.57-.65h6.16c.54,0,.99.2,1.36.61.37.41.55.89.55,1.45v3.35h-3.51v-1.75c0-.13-.04-.22-.11-.3-.07-.07-.17-.11-.3-.11h-2.43c-.13,0-.23.04-.3.11s-.11.17-.11.3v3.78c0,.13.04.22.11.3s.17.11.3.11h4.32c.56,0,1.03.2,1.43.61.4.41.59.9.59,1.47v6.86c0,.56-.21,1.05-.62,1.48-.41.43-.94.65-1.57.65h-6.16Z"/>
    <path class="st0" d="M153.39,32.67V13.77h7.88c.58,0,1.06.21,1.46.62.4.42.59.91.59,1.49v7.34c0,.59-.21,1.1-.62,1.53-.41.42-.93.63-1.54.63h-5.32v7.29h-2.46ZM160,23.11c.25,0,.46-.08.62-.24s.24-.37.24-.62v-5.35c0-.27-.08-.48-.23-.63-.15-.15-.36-.23-.63-.23h-4.16v7.07h4.16Z"/>
    <path class="st0" d="M166.89,15.93c0-.58.21-1.08.63-1.51.42-.43.93-.65,1.53-.65h5.62c.58,0,1.08.22,1.51.65.43.43.65.94.65,1.51v16.74h-2.46v-7.29h-5.02v7.29h-2.46V15.93ZM169.34,23.11h5.02v-6.21c0-.25-.08-.46-.24-.62s-.37-.24-.62-.24h-3.29c-.25,0-.46.08-.62.24s-.24.37-.24.62v6.21Z"/>
    <path class="st0" d="M180.39,32.67V13.77h7.88c.58,0,1.06.21,1.46.63.4.42.59.91.59,1.47v6.51c0,.58-.16,1.05-.49,1.42-.32.37-.77.55-1.32.55v-.22c.54,0,.98.19,1.31.58s.5.87.5,1.44v6.51h-2.46v-6.43c0-.25-.08-.46-.24-.62s-.37-.24-.62-.24h-4.56v-2.27h4.56c.25,0,.46-.08.62-.24s.24-.37.24-.62v-5.35c0-.25-.08-.46-.24-.62s-.37-.24-.62-.24h-4.16v16.63h-2.46Z"/>
    <path class="st0" d="M197.34,32.67v-16.63h-3.73v-2.27h9.94v2.27h-3.75v16.63h-2.46Z"/>
    <path class="st0" d="M206.85,32.67V13.77h2.46v18.9h-2.46ZM214.33,16.9c0-.27-.08-.48-.23-.63-.15-.15-.36-.23-.63-.23h-2.38c-.2,0-.4.04-.59.13-.2.09-.36.19-.49.3l-.27.27c-.16.14-.27.28-.34.42-.06.13-.09.27-.09.42v.35h-.49v-2.94c.54-.5.95-.83,1.23-.99.28-.15.63-.23,1.07-.23h3.51c.67,0,1.19.2,1.58.59.39.4.58.92.58,1.57v16.74h-2.46v-15.77Z"/>
    <path class="st0" d="M220.35,32.67V13.77h8.59v2.27h-6.13v5.78h4.35v2.27h-4.35v6.32h6.13v2.27h-8.59Z"/>
    <path class="st0" d="M232.23,32.67V13.77h7.88c.58,0,1.06.21,1.46.63.4.42.59.91.59,1.47v6.51c0,.58-.16,1.05-.49,1.42-.32.37-.77.55-1.32.55v-.22c.54,0,.98.19,1.31.58.33.39.5.87.5,1.44v6.51h-2.46v-6.43c0-.25-.08-.46-.24-.62s-.37-.24-.62-.24h-4.56v-2.27h4.56c.25,0,.46-.08.62-.24s.24-.37.24-.62v-5.35c0-.25-.08-.46-.24-.62s-.37-.24-.62-.24h-4.16v16.63h-2.46Z"/>
    <path class="st0" d="M247.78,32.67c-.58,0-1.06-.21-1.46-.62-.4-.41-.59-.91-.59-1.49v-2.65h2.46v1.67c0,.23.08.43.23.58s.35.23.58.23h3.4c.23,0,.43-.08.58-.23.15-.15.23-.35.23-.58v-4.59c0-.31-.06-.52-.17-.63-.12-.12-.33-.17-.63-.17h-4.56c-.61,0-1.12-.19-1.51-.58-.4-.39-.59-.89-.59-1.5v-6.18c0-.59.21-1.1.62-1.53.41-.42.93-.63,1.54-.63h5.72c.58,0,1.06.21,1.46.62.4.42.59.91.59,1.49v2.65h-2.46v-1.67c0-.23-.08-.43-.23-.58s-.35-.23-.58-.23h-3.4c-.23,0-.43.08-.58.23-.15.15-.23.35-.23.58v4.27c0,.31.06.52.17.63.12.12.33.18.63.18h4.56c.61,0,1.12.19,1.51.58.4.39.59.89.59,1.5v6.51c0,.59-.21,1.1-.62,1.53-.41.42-.93.63-1.54.63h-5.72Z"/>
  </g>
</svg>