<?xml version="1.0" encoding="UTF-8"?>
<svg xmlns="http://www.w3.org/2000/svg" width="161" height="67" viewBox="0 0 161 67" fill="none">
  <path d="M62.7607 55.2993V63.8122H2.97365V3.72801H62.7607V12.2408H65.7343V0.742188H0V66.8005H65.7343V55.2993H62.7607Z" fill="white"></path>
  <path d="M23.4259 43.1213V43.6901H21.8414V45.7121H23.7868V46.2884H21.1172V40.6074H23.7868V41.1837H21.8414V43.1238H23.4259V43.1213Z" fill="white"></path>
  <path d="M32.4577 40.606C33.4687 40.606 33.9309 41.1401 33.9309 42.0169V44.881C33.9309 45.7505 33.4687 46.2845 32.4577 46.2845H30.9375V40.6035H32.4577V40.606ZM32.4478 45.7107C32.9669 45.7107 33.2166 45.4275 33.2166 44.9059V41.9846C33.2166 41.4655 32.9669 41.1798 32.4379 41.1798H31.6593V45.7082H32.4478V45.7107Z" fill="white"></path>
  <path d="M41.7788 44.9476C41.7788 45.4593 42.0112 45.7673 42.5377 45.7673C43.0642 45.7673 43.2891 45.4593 43.2891 44.9476V40.6055H43.9664V44.9153C43.9664 45.7748 43.5116 46.3511 42.5105 46.3511C41.5094 46.3511 41.0645 45.7748 41.0645 44.9153V40.6055H41.7788V44.9476Z" fill="white"></path>
  <path d="M54.0247 41.9772V42.4889H53.34V41.9449C53.34 41.4331 53.1077 41.1251 52.5812 41.1251C52.0547 41.1251 51.8223 41.4331 51.8223 41.9449V44.9481C51.8223 45.4598 52.0621 45.7678 52.5812 45.7678C53.1003 45.7678 53.34 45.4598 53.34 44.9481V44.2103H54.0247V44.9158C54.0247 45.7753 53.5625 46.3441 52.5614 46.3441C51.5603 46.3441 51.1055 45.7753 51.1055 44.9158V41.9772C51.1055 41.1177 51.5677 40.5488 52.5614 40.5488C53.5551 40.5488 54.0247 41.1177 54.0247 41.9772V41.9772Z" fill="white"></path>
  <path d="M61.8995 45.1413L61.6498 46.2865H60.9824L62.2233 40.6055H63.2689L64.5098 46.2865H63.788L63.5383 45.1413H61.8995V45.1413ZM61.9934 44.5973H63.4395L62.7078 41.3184L61.9959 44.5973H61.9934Z" fill="white"></path>
  <path d="M72.5064 46.2865V41.1818H71.3125V40.6055H74.4246V41.1818H73.2307V46.2865H72.5089H72.5064Z" fill="white"></path>
  <path d="M82.1359 40.6055V46.2865H81.4141V40.6055H82.1359Z" fill="white"></path>
  <path d="M89.3027 41.9772C89.3027 41.1077 89.7946 40.5488 90.7859 40.5488C91.7771 40.5488 92.2764 41.1102 92.2764 41.9772V44.9158C92.2764 45.7753 91.7845 46.3441 90.7859 46.3441C89.7872 46.3441 89.3027 45.7753 89.3027 44.9158V41.9772ZM90.0171 44.9481C90.0171 45.4672 90.2668 45.7678 90.7859 45.7678C91.3049 45.7678 91.5546 45.4672 91.5546 44.9481V41.9449C91.5546 41.4331 91.3148 41.1251 90.7859 41.1251C90.2569 41.1251 90.0171 41.4331 90.0171 41.9449V44.9481Z" fill="white"></path>
  <path d="M100.089 46.2865H99.4414V40.6055H100.358L101.859 44.7116V40.6055H102.499V46.2865H101.748L100.089 41.6935V46.2865V46.2865Z" fill="white"></path>
  <path d="M120.509 41.9772V42.464H119.824V41.9449C119.824 41.4331 119.592 41.1251 119.066 41.1251C118.539 41.1251 118.307 41.4331 118.307 41.9449V44.9481C118.307 45.4598 118.546 45.7678 119.066 45.7678C119.585 45.7678 119.824 45.4598 119.824 44.9481V43.8129H119.157V43.244H120.509V44.9158C120.509 45.7753 120.047 46.3441 119.046 46.3441C118.045 46.3441 117.59 45.7753 117.59 44.9158V41.9772C117.59 41.1177 118.052 40.5488 119.046 40.5488C120.039 40.5488 120.509 41.1177 120.509 41.9772V41.9772Z" fill="white"></path>
  <path d="M129.123 40.6055C130.141 40.6055 130.569 41.0601 130.569 41.9046V42.3667C130.569 42.9926 130.319 43.3826 129.763 43.5366C130.356 43.6907 130.579 44.1129 130.579 44.7215V45.6059C130.579 45.8567 130.589 46.0927 130.71 46.2865H129.978C129.894 46.125 129.857 45.9785 129.857 45.5959V44.7041C129.857 44.0633 129.513 43.8596 128.913 43.8596H128.403V46.2865H127.682V40.6055H129.128H129.123ZM128.937 43.2833C129.511 43.2833 129.854 43.1218 129.854 42.5033V41.9593C129.854 41.4476 129.642 41.1793 129.103 41.1793H128.398V43.2808H128.937V43.2833Z" fill="white"></path>
  <path d="M137.758 41.9772C137.758 41.1077 138.25 40.5488 139.241 40.5488C140.232 40.5488 140.731 41.1102 140.731 41.9772V44.9158C140.731 45.7753 140.24 46.3441 139.241 46.3441C138.242 46.3441 137.758 45.7753 137.758 44.9158V41.9772ZM138.472 44.9481C138.472 45.4672 138.722 45.7678 139.241 45.7678C139.76 45.7678 140.01 45.4672 140.01 44.9481V41.9449C140.01 41.4331 139.77 41.1251 139.241 41.1251C138.712 41.1251 138.472 41.4331 138.472 41.9449V44.9481Z" fill="white"></path>
  <path d="M148.589 44.9476C148.589 45.4593 148.822 45.7673 149.348 45.7673C149.875 45.7673 150.1 45.4593 150.1 44.9476V40.6055H150.777V44.9153C150.777 45.7748 150.322 46.3511 149.321 46.3511C148.32 46.3511 147.875 45.7748 147.875 44.9153V40.6055H148.589V44.9476Z" fill="white"></path>
  <path d="M159.389 40.6055C160.407 40.6055 160.845 41.1321 160.845 41.9941V42.6747C160.845 43.5739 160.363 44.0459 159.335 44.0459H158.694V46.2865H157.973V40.6055H159.389V40.6055ZM159.332 43.477C159.871 43.477 160.128 43.2584 160.128 42.7144V41.9593C160.128 41.4401 159.916 41.1793 159.387 41.1793H158.692V43.4745H159.332V43.477Z" fill="white"></path>
  <path d="M103.678 22.7723H97.1106V36.2085H93.828V22.7723H87.2207V19.4238H103.678V22.7723Z" fill="white"></path>
  <path d="M122.786 22.7723H106.328V19.4238H122.786V22.7723ZM122.786 29.4718H106.328V26.1233H122.786V29.4718ZM122.786 36.211H106.328V32.8625H122.786V36.211Z" fill="white"></path>
  <path d="M141.893 36.2085H125.436V19.4238H141.893V22.7723H128.718V32.86H141.893V36.2085Z" fill="white"></path>
  <path d="M161 36.2085H157.717V29.4693H147.828V36.2085H144.545V19.4238H147.828V26.1208H157.717V19.4238H161V36.2085Z" fill="white"></path>
  <path d="M28.9375 33.8562C31.5824 33.8264 32.9246 33.0489 32.9617 31.5237C32.9815 30.2742 32.0941 29.524 30.3069 29.2706C29.4863 29.1787 28.589 29.0744 27.6101 28.9601C25.8576 28.7217 24.5277 28.1901 23.6131 27.3629C22.6713 26.5109 22.2017 25.4775 22.2017 24.2603C22.2017 22.7972 22.7925 21.6173 23.9765 20.7205C25.1234 19.8313 26.7475 19.3792 28.851 19.3643C31.3847 19.4115 33.5871 19.9902 35.4608 21.1006L33.7428 23.1922C32.2152 22.365 30.5344 21.9352 28.7002 21.9054C27.751 21.9054 26.9576 22.1017 26.3248 22.4917C25.6623 22.8991 25.3237 23.5027 25.3039 24.3075C25.3039 24.7894 25.5313 25.2266 25.9886 25.6166C26.4459 26.0141 27.1751 26.2923 28.1836 26.4438C28.7422 26.5208 29.5061 26.6077 30.475 26.7071C32.3833 26.9207 33.7947 27.4846 34.7093 28.3963C35.614 29.293 36.0639 30.3338 36.0639 31.5237C35.9601 34.7281 33.5772 36.3527 28.9103 36.3974C25.8922 36.3974 23.2992 35.6323 21.1289 34.0996L23.1534 32.1919C24.7749 33.2873 26.703 33.8438 28.9375 33.8587V33.8562Z" fill="white"></path>
  <path d="M39.221 20.6958H42.1403V24.3275H44.2636V26.1558H42.1403V33.1086C42.1205 33.7147 42.4666 34.0079 43.1735 33.9929H44.2636V36.2584H42.741C41.7151 36.2584 40.8772 35.9976 40.2271 35.4759C39.5572 34.9766 39.221 34.2563 39.221 33.3148V26.1533H37.7676V24.325H39.221V20.6934V20.6958Z" fill="white"></path>
  <path d="M47.002 24.3297H49.9212V25.5941H49.9781C50.9372 24.6526 52.1953 24.1807 53.7501 24.1807C54.9144 24.1956 55.9303 24.5011 56.7955 25.0998L54.6722 27.1814C54.0567 26.7839 53.4189 26.5827 52.7589 26.5827C52.0124 26.5827 51.3747 26.7815 50.8432 27.1814C50.2475 27.5714 49.9385 28.2048 49.9212 29.0792V36.2631H47.002V24.3322V24.3297Z" fill="white"></path>
  <path d="M65.2354 35.2027H65.1786C64.9091 35.6101 64.4889 35.9081 63.9204 36.0994C63.3617 36.2981 62.5881 36.3975 61.6018 36.3975C59.9802 36.3826 58.7319 36.0299 57.8569 35.3393C56.9349 34.6661 56.4727 33.8042 56.4727 32.7534C56.4727 31.7027 56.8731 30.9177 57.674 30.2594C58.4749 29.5862 59.649 29.241 61.1939 29.2261H65.2305V27.9741C65.2503 26.9233 64.2566 26.4141 62.2543 26.4439C61.5276 26.4439 60.9541 26.506 60.5364 26.6277C60.0989 26.7743 59.7553 27.0177 59.5032 27.363L57.2117 25.9272C58.3191 24.7324 59.9555 24.1487 62.1159 24.181C63.9426 24.1661 65.3986 24.4492 66.4887 25.033C67.5787 25.6316 68.1324 26.6576 68.1522 28.1132V36.2634H65.2329V35.2052L65.2354 35.2027ZM65.2354 31.2034H61.7427C60.047 31.2332 59.209 31.7126 59.2288 32.6391C59.2288 33.0465 59.4488 33.3893 59.8863 33.6725C60.304 33.988 60.9986 34.1445 61.9676 34.1445C63.1887 34.1594 64.0489 34.0401 64.5532 33.7868C65.008 33.5334 65.2379 32.9596 65.2379 32.0628V31.2009L65.2354 31.2034Z" fill="white"></path>
  <path d="M72.096 20.6958H75.0153V24.3275H77.1386V26.1558H75.0153V33.1086C74.9955 33.7147 75.3416 34.0079 76.0485 33.9929H77.1386V36.2584H75.616C74.5901 36.2584 73.7522 35.9976 73.1021 35.4759C72.4322 34.9766 72.096 34.2563 72.096 33.3148V26.1533H70.6426V24.325H72.096V20.6934V20.6958Z" fill="white"></path>
  <path d="M87.4913 35.2027H87.4344C87.165 35.6101 86.7448 35.9081 86.1762 36.0994C85.6176 36.2981 84.8439 36.3975 83.8576 36.3975C82.2361 36.3826 80.9878 36.0299 80.1128 35.3393C79.1908 34.6661 78.7285 33.8042 78.7285 32.7534C78.7285 31.7027 79.129 30.9177 79.9298 30.2594C80.7307 29.5862 81.9049 29.241 83.4498 29.2261H87.4863V27.9741C87.5061 26.9233 86.5124 26.4141 84.5102 26.4439C83.7835 26.4439 83.21 26.506 82.7923 26.6277C82.3547 26.7743 82.0112 27.0177 81.759 27.363L79.4676 25.9272C80.575 24.7324 82.2114 24.1487 84.3718 24.181C86.1985 24.1661 87.6544 24.4492 88.7445 25.033C89.8346 25.6316 90.3883 26.6576 90.4081 28.1132V36.2634H87.4888V35.2052L87.4913 35.2027ZM87.4913 31.2034H83.9985C82.3028 31.2332 81.4649 31.7126 81.4846 32.6391C81.4846 33.0465 81.7046 33.3893 82.1422 33.6725C82.5599 33.988 83.2545 34.1445 84.2235 34.1445C85.4446 34.1594 86.3048 34.0401 86.809 33.7868C87.2639 33.5334 87.4937 32.9596 87.4937 32.0628V31.2009L87.4913 31.2034Z" fill="white"></path>
</svg>
